<svg width="242" height="214" viewBox="0 0 242 214" fill="none" xmlns="http://www.w3.org/2000/svg">
<path d="M47.724 107.812C45.1426 124.588 175.893 124.588 173.301 107.809C175.883 91.0352 45.1325 91.0351 47.724 107.812Z" fill="#F0F0F0"/>
<path d="M114.206 114.223H106.819V211.957H114.206V114.223Z" fill="#F0F0F0"/>
<path d="M67.3356 101.628C66.9019 100.783 66.2818 100.048 65.5221 99.4775C64.7624 98.9074 63.883 98.5176 62.9504 98.3374C62.0178 98.1572 61.0565 98.1914 60.1391 98.4375C59.2216 98.6836 58.3722 99.135 57.655 99.7577L30.5373 93.3359L28.5375 86.6992L17.7196 88.4751C19.1843 92.9894 18.5956 104.556 25.5596 104.675L56.239 107.378C59.8861 114.572 71.0818 108.733 67.3356 101.628Z" fill="#9F616A"/>
<path d="M8.53476 148.836H35.8151C35.8151 149.62 63.9308 150.257 63.9308 150.257C69.3302 154.21 66.7914 164.379 59.6748 164.178L8.53476 164.178C-0.870533 164.312 -0.889774 148.704 8.53476 148.836Z" fill="#F0F0F0"/>
<path d="M38.2094 163.896H30.8225V211.627H38.2094V163.896Z" fill="#F0F0F0"/>
<path d="M59.2337 211.367C59.2337 212.165 48.04 211.676 34.2319 211.676C20.4237 211.676 9.22998 212.165 9.22998 211.367C18.7243 202.301 49.8745 202.383 59.2337 211.367Z" fill="#F0F0F0"/>
<path d="M51.997 205.205L58.963 205.204L62.277 187.137H51.996L51.997 205.205Z" fill="#9F616A"/>
<path d="M50.2204 211.957L72.6826 211.956C73.0142 200.168 57.6067 203.262 50.2199 202.93L50.2204 211.957Z" fill="#2F2E41"/>
<path d="M62.4163 194L76.3042 162.857C77.4637 160.233 77.592 157.267 76.6633 154.552C75.7347 151.837 73.8174 149.571 71.2933 148.206L41.1698 132.053C34.596 131.521 21.2925 130.337 14.744 129.731C2.83959 151.243 52.5311 156.11 59.5673 159.799C59.8329 159.87 60.0811 159.995 60.2961 160.167C60.5111 160.338 60.6884 160.552 60.8169 160.795C60.9454 161.038 61.0222 161.305 61.0427 161.579C61.0631 161.854 61.0267 162.129 60.9356 162.389L48.0333 191.376C47.9004 191.744 47.8534 192.137 47.8957 192.526C47.938 192.915 48.0685 193.288 48.2773 193.619C48.4862 193.949 48.7677 194.228 49.1006 194.433C49.4334 194.638 49.8087 194.764 50.1979 194.802C52.2374 194.328 61.5312 197.146 62.4163 194Z" fill="#2F2E41"/>
<path d="M47.451 205.205L54.417 205.204L57.732 187.137H47.45L47.451 205.205Z" fill="#9F616A"/>
<path d="M45.6746 211.957L68.1368 211.956C68.4684 200.168 53.0609 203.262 45.6742 202.93L45.6746 211.957Z" fill="#2F2E41"/>
<path d="M57.3023 195.705L71.1902 164.562C72.3497 161.937 72.4779 158.972 71.5493 156.257C70.6207 153.542 68.7034 151.276 66.1793 149.911L36.0558 133.758C30.3193 133.297 18.0416 132.206 12.3783 131.727L12.3797 131.591C9.39613 135.251 10.5098 148.503 19.3457 150.753C32.8202 155.694 48.3866 159.917 54.4537 161.503C54.7193 161.574 54.9673 161.699 55.1823 161.871C55.3973 162.042 55.5745 162.256 55.7029 162.5C55.8314 162.743 55.9082 163.01 55.9286 163.284C55.9491 163.558 55.9126 163.834 55.8217 164.093L42.9193 193.081C42.7865 193.449 42.7394 193.842 42.7817 194.231C42.824 194.619 42.9545 194.993 43.1634 195.324C43.3722 195.654 43.6538 195.933 43.9866 196.138C44.3195 196.343 44.6948 196.469 45.0839 196.507C47.1374 196.049 56.407 198.839 57.3023 195.705Z" fill="#2F2E41"/>
<path d="M31.1297 132.295C31.7956 131.824 41.3577 136.841 43.0625 132.863C35.1073 112.975 40.5892 104.388 35.7163 92.9828C32.509 83.9012 21.36 84.5268 13.6595 84.2882C10.7887 85.6769 8.44421 87.957 6.97621 90.788C5.50822 93.619 4.99551 96.849 5.51468 99.9954C5.55968 112.407 12.9859 121.874 10.3893 130.876C10.2809 131.245 10.2481 131.633 10.293 132.015C10.3379 132.397 10.4595 132.766 10.6505 133.1C10.8415 133.433 11.098 133.725 11.4046 133.958C11.7112 134.19 12.0616 134.358 12.4347 134.452C13.8387 134.112 30.725 132.357 31.4105 131.783L31.1297 132.295Z" fill="#B80C09"/>
<path d="M17.8792 51.653C-0.372503 51.7349 -0.370949 79.4859 17.88 79.5653C36.1308 79.4834 36.1293 51.7324 17.8792 51.653Z" fill="#9F616A"/>
<path d="M13.4338 78.4192C14.1753 78.7436 15.6938 72.835 15.0136 71.6533C14.002 69.8958 14.0618 69.9084 13.3903 68.7457C11.3827 66.3093 14.854 62.2701 16.717 65.3637C16.8292 56.0664 34.9021 64.1025 33.1371 53.753C12.4855 33.5609 -16.3457 65.3528 13.4338 78.4192Z" fill="#2F2E41"/>
<path d="M219.581 144.723H198.255C198.255 145.637 174.944 146.378 174.944 146.378C168.65 150.985 171.611 162.835 179.903 162.601L219.581 162.601C230.546 162.757 230.56 144.569 219.581 144.723Z" fill="#F0F0F0"/>
<path d="M204.073 162.272H195.465V211.957H204.073V162.272Z" fill="#F0F0F0"/>
<path d="M170.348 211.037C168.653 211.821 230.306 211.819 228.617 211.038C217.553 200.473 181.254 200.568 170.348 211.037Z" fill="#F0F0F0"/>
<path d="M44.2397 112.903L68.4883 93.7727C76.0523 96.5002 80.2403 84.5814 72.6195 81.9777C71.7244 81.6603 70.7688 81.5505 69.825 81.6568C68.8812 81.7631 67.9739 82.0825 67.1718 82.5911C66.3696 83.0996 65.6936 83.7838 65.1948 84.5921C64.696 85.4003 64.3875 86.3114 64.2926 87.2564L40.1536 101.182L34.1465 97.7236L27.492 106.436C31.5934 108.671 39.1592 117.545 44.2397 112.903Z" fill="#9F616A"/>
<path d="M201.346 107.386C200.585 107.008 199.917 106.467 199.387 105.802C198.858 105.137 198.481 104.364 198.283 103.537C198.085 102.711 198.07 101.851 198.24 101.018C198.41 100.185 198.761 99.3996 199.267 98.717L194.92 56.2102H204.315L207.77 97.7159C208.861 98.6427 209.573 99.9373 209.773 101.354C209.973 102.771 209.646 104.212 208.854 105.404C208.062 106.596 206.86 107.457 205.477 107.822C204.093 108.187 202.623 108.032 201.346 107.386V107.386Z" fill="#FFB6B6"/>
<path d="M192.72 32.7517C200.061 32.7517 206.012 26.8004 206.012 19.459C206.012 12.1176 200.061 6.16629 192.72 6.16629C185.378 6.16629 179.427 12.1176 179.427 19.459C179.427 26.8004 185.378 32.7517 192.72 32.7517Z" fill="#FFB6B6"/>
<path d="M189.695 80.9083L169.856 76.576C169.334 76.4611 168.865 76.1784 168.52 75.7713C168.174 75.3642 167.972 74.855 167.943 74.3218C167.714 69.8949 167.55 58.4428 170.96 47.7517C171.618 45.702 172.681 43.8051 174.086 42.1734C175.49 40.5417 177.208 39.2083 179.137 38.2521C181.066 37.2958 183.167 36.7361 185.316 36.6061C187.465 36.4761 189.618 36.7785 191.648 37.4953V37.4953C193.791 38.2481 195.75 39.4452 197.397 41.0082C199.044 42.5713 200.342 44.4649 201.205 46.5649C202.069 48.6648 202.479 50.9237 202.408 53.1932C202.338 55.4628 201.788 57.6917 200.795 59.7339C196.396 68.768 193.625 75.3101 192.56 79.1795C192.395 79.7797 192.005 80.2936 191.472 80.6152C190.939 80.9369 190.303 81.0418 189.695 80.9083L189.695 80.9083Z" fill="#B80C09"/>
<path d="M171.006 207.191H164.37L161.214 181.598L171.007 181.599L171.006 207.191Z" fill="#FFB6B6"/>
<path d="M159.631 205.295H172.427V213.352H151.574C151.574 212.294 151.782 211.246 152.187 210.268C152.592 209.291 153.186 208.403 153.934 207.655C154.682 206.906 155.57 206.313 156.548 205.908C157.525 205.503 158.573 205.295 159.631 205.295Z" fill="#2F2E41"/>
<path d="M237.353 198.592L231.539 201.789L216.442 180.883L225.024 176.165L237.353 198.592Z" fill="#FFB6B6"/>
<path d="M226.472 202.41L237.686 196.245L241.568 203.306L223.294 213.352C222.784 212.425 222.462 211.406 222.346 210.355C222.23 209.303 222.322 208.239 222.617 207.223C222.912 206.207 223.405 205.259 224.066 204.433C224.728 203.607 225.545 202.92 226.472 202.41Z" fill="#2F2E41"/>
<path d="M171.126 192.979L160.912 192.192C160.34 192.15 159.802 191.906 159.393 191.505C158.983 191.104 158.729 190.571 158.674 190C157.219 174.816 150.832 97.8714 168.106 74.1812L168.154 74.1151L168.232 74.0866C168.386 74.03 183.792 68.5365 192.63 78.6039C192.908 78.9239 193.097 79.3107 193.179 79.7261C193.261 80.1416 193.234 80.5713 193.099 80.9728L192.762 81.9844C192.666 82.2711 192.64 82.5769 192.686 82.8757C192.733 83.1746 192.851 83.4578 193.03 83.7016C195.483 87.0176 203.739 99.7888 206.984 124.903C207.004 125.063 207.045 125.22 207.106 125.369L231.062 184.219C231.184 184.519 231.246 184.841 231.242 185.166C231.238 185.49 231.169 185.811 231.04 186.108C230.911 186.406 230.723 186.674 230.488 186.898C230.254 187.122 229.977 187.297 229.673 187.413L222.135 190.285C221.586 190.491 220.982 190.493 220.431 190.291C219.881 190.089 219.421 189.696 219.136 189.184L184.553 126.441C184.415 126.191 184.202 125.991 183.944 125.87C183.686 125.748 183.396 125.712 183.116 125.765C182.836 125.818 182.579 125.958 182.384 126.166C182.188 126.373 182.063 126.637 182.026 126.92L173.728 190.864C173.652 191.45 173.366 191.988 172.922 192.379C172.478 192.769 171.907 192.985 171.315 192.986C171.253 192.986 171.19 192.983 171.126 192.979Z" fill="#2F2E41"/>
<path d="M141.043 34.8999C141.109 35.1919 141.152 35.4887 141.172 35.7875L164.421 49.1998L170.072 45.9466L176.096 53.8333L166.652 60.5647C165.889 61.1085 164.97 61.3901 164.034 61.3673C163.097 61.3445 162.193 61.0184 161.458 60.4381L137.484 41.525C136.402 41.9255 135.224 41.9871 134.106 41.7017C132.988 41.4162 131.984 40.7972 131.226 39.9269C130.469 39.0567 129.994 37.9765 129.866 36.83C129.737 35.6835 129.961 34.5251 130.507 33.5087C131.053 32.4924 131.895 31.6664 132.922 31.1405C133.949 30.6147 135.111 30.4139 136.255 30.5649C137.399 30.7159 138.47 31.2116 139.325 31.986C140.18 32.7603 140.779 33.7767 141.043 34.8999V34.8999Z" fill="#FFB6B6"/>
<path d="M164.741 47.8592C164.811 47.5162 164.954 47.1925 165.16 46.9099C165.367 46.6274 165.632 46.3927 165.937 46.222L176.606 40.2563C178.024 39.1607 179.818 38.6721 181.595 38.8978C183.372 39.1235 184.987 40.045 186.086 41.4602C187.184 42.8753 187.676 44.6684 187.454 46.4461C187.232 48.2237 186.314 49.8407 184.901 50.9421L176.395 59.7753C176.152 60.0274 175.858 60.2242 175.532 60.3523C175.206 60.4804 174.857 60.5368 174.507 60.5176C174.158 60.4985 173.817 60.4043 173.507 60.2414C173.197 60.0785 172.926 59.8507 172.713 59.5736L165.199 49.8351C164.985 49.5581 164.833 49.2381 164.754 48.8971C164.675 48.5561 164.67 48.2021 164.741 47.8592V47.8592Z" fill="#B80C09"/>
<path d="M190.616 16.4015C187.199 18.7398 182.713 21.1435 179.224 18.6533C178.132 17.8221 177.339 16.6598 176.964 15.3403C176.588 14.0207 176.65 12.615 177.14 11.3336C178.811 6.55543 183.401 4.45186 187.791 2.83944C193.498 0.743313 199.712 -0.92425 205.603 0.5769C211.494 2.07805 216.701 7.78199 215.637 13.7678C214.782 18.5814 210.242 22.5868 210.886 27.4332C211.535 32.3106 217.02 34.878 221.863 35.7497C226.705 36.6214 232.124 36.9015 235.604 40.3799C240.044 44.8172 238.935 52.7483 234.758 57.4332C230.58 62.1181 224.276 64.2417 218.168 65.6854C210.074 67.5981 201.32 68.6034 193.634 65.429C185.947 62.2546 179.965 53.7094 182.192 45.6965C183.132 42.3119 185.348 39.4514 187.489 36.6667C189.631 33.8819 191.799 30.9699 192.616 27.5533C192.993 26.1336 193.034 24.6458 192.737 23.2073C192.44 21.7688 191.813 20.4191 190.905 19.2647C190.561 18.8909 190.345 18.4179 190.287 17.9135C190.229 17.4092 190.333 16.8996 190.583 16.4577L190.616 16.4015Z" fill="#2F2E41"/>
</svg>
