<svg width="210" height="269" viewBox="0 0 210 269" fill="none" xmlns="http://www.w3.org/2000/svg">
<path d="M118.93 138.213C119.586 137.77 120.138 137.19 120.546 136.511C120.954 135.833 121.208 135.073 121.29 134.286C121.373 133.498 121.281 132.702 121.023 131.954C120.765 131.206 120.345 130.523 119.795 129.955L128.467 112.777L118.534 113.929L111.822 130.065C110.927 131.053 110.427 132.335 110.415 133.668C110.403 135.001 110.88 136.291 111.757 137.296C112.633 138.3 113.847 138.948 115.169 139.117C116.491 139.286 117.829 138.964 118.93 138.213V138.213Z" fill="#FFB7B7"/>
<path d="M188.479 259.892L180.664 259.891L176.945 229.746H188.48L188.479 259.892Z" fill="#FFB7B7"/>
<path d="M190.472 267.468L165.272 267.467V267.148C165.272 264.547 166.305 262.052 168.145 260.212C169.984 258.373 172.479 257.339 175.08 257.339H175.081L190.473 257.34L190.472 267.468Z" fill="#2F2E41"/>
<path d="M145.767 259.892L137.952 259.891L134.234 229.746H145.768L145.767 259.892Z" fill="#FFB7B7"/>
<path d="M145.848 267.468L120.647 267.467V267.148C120.647 264.547 121.681 262.052 123.52 260.212C125.36 258.373 127.855 257.339 130.456 257.339H130.457L145.848 257.34L145.848 267.468Z" fill="#2F2E41"/>
<path d="M145.127 132.571L137.477 150.195L131.167 251.492L147.104 250.854L151.457 202.566L164.884 159.556L172.603 207.505L175.791 249.579L188.978 250.15L194.233 132.571H145.127Z" fill="#2F2E41"/>
<path d="M183.366 45.6068L161.194 46.1614L148.177 52.8439L147.463 102.146L139.344 136.185C139.344 136.185 190.07 139.676 197.082 134.576L188.795 95.689L199.91 53.6633L183.366 45.6068Z" fill="#B80C09"/>
<path d="M151.601 53.6611L149.537 52.2672C149.537 52.2672 140.986 54.8301 138.458 66.2322C138.458 66.2322 136.524 71.9527 135.676 75.8857C134.702 80.3969 113.209 121.834 113.209 121.834L126.077 125.525L149.67 87.3724L151.601 53.6611Z" fill="#B80C09"/>
<path d="M199.563 144.535C199.054 143.929 198.683 143.218 198.479 142.453C198.274 141.689 198.239 140.889 198.377 140.109C198.515 139.329 198.822 138.59 199.276 137.942C199.731 137.294 200.322 136.753 201.008 136.358L197.409 117.455L206.64 121.302L208.642 138.663C209.229 139.859 209.356 141.23 209 142.514C208.644 143.799 207.83 144.908 206.71 145.631C205.591 146.355 204.246 146.643 202.928 146.441C201.611 146.239 200.413 145.561 199.563 144.535V144.535Z" fill="#FFB7B7"/>
<path d="M196.574 54.2521L198.942 53.4814C198.942 53.4814 206.455 58.3029 205.74 69.9599C205.74 69.9599 206.022 75.992 205.753 80.0065C205.445 84.6112 209.578 130.368 209.578 130.368H196.191L190.453 88.9314L196.574 54.2521Z" fill="#B80C09"/>
<path d="M188.809 24.9225C188.809 27.9624 187.907 30.934 186.219 33.4616C184.53 35.9891 182.129 37.9591 179.321 39.1225C176.512 40.2858 173.422 40.5901 170.44 39.9971C167.459 39.404 164.72 37.9402 162.571 35.7907C160.421 33.6411 158.957 30.9025 158.364 27.921C157.771 24.9396 158.076 21.8492 159.239 19.0407C160.402 16.2322 162.372 13.8318 164.9 12.1429C167.427 10.454 170.399 9.5526 173.439 9.5526V9.5526C177.505 9.54245 181.409 11.148 184.291 14.016C187.174 16.8841 188.799 20.7797 188.809 24.8459C188.809 24.8715 188.809 24.897 188.809 24.9225Z" fill="#FFB7B7"/>
<path d="M158.12 4.27793C159.921 0.406238 163.405 1.17172 166.452 2.48411C170.311 1.62811 173.981 -0.934501 178.139 0.581029C182.235 6.53782 195.985 4.78523 193.06 14.4829C193.056 16.8067 197.432 15.4541 196.668 19.2599C198.987 26.5842 188.3 40.4552 182.165 37.5342C183.683 34.7534 187.149 28.4374 181.892 27.811C170.583 38.3332 180.725 7.77436 166.516 16.6614C161.811 20.9669 155.37 8.58452 158.12 4.27793Z" fill="#2F2E41"/>
<path d="M100.36 91.8072C100.146 92.028 99.9486 92.2653 99.7712 92.517L72.1848 91.842L68.9666 85.9612L59.4567 89.6581L64.1422 100.623C64.5207 101.508 65.1764 102.247 66.0107 102.729C66.845 103.21 67.813 103.408 68.7693 103.293L99.9368 99.5274C100.672 100.458 101.673 101.143 102.807 101.491C103.941 101.839 105.154 101.833 106.285 101.475C107.415 101.117 108.41 100.423 109.137 99.4851C109.863 98.5476 110.287 97.4111 110.352 96.2268C110.417 95.0425 110.12 93.8665 109.5 92.8552C108.881 91.8439 107.968 91.0452 106.883 90.5654C105.798 90.0856 104.593 89.9475 103.428 90.1693C102.263 90.3911 101.193 90.9624 100.36 91.8072V91.8072Z" fill="#9F616A"/>
<path d="M10.433 259.342H19.503L23.818 224.355L10.431 224.356L10.433 259.342Z" fill="#9F616A"/>
<path d="M8.1189 256.381L25.9822 256.38H25.9829C29.002 256.38 31.8974 257.58 34.0323 259.714C36.1671 261.849 37.3666 264.745 37.3668 267.764V268.134L8.11945 268.135L8.1189 256.381Z" fill="#2F2E41"/>
<path d="M92.797 259.14L101.138 255.577L91.363 221.708L79.052 226.967L92.797 259.14Z" fill="#9F616A"/>
<path d="M89.5056 257.326L105.933 250.308L105.933 250.308C108.71 249.122 111.844 249.087 114.645 250.212C117.447 251.337 119.688 253.528 120.874 256.304L121.019 256.645L94.1234 268.135L89.5056 257.326Z" fill="#2F2E41"/>
<path d="M54.522 99.386L55.178 110.015L36.005 112.067L15.943 114.214L21.848 98.074L54.522 99.386Z" fill="#9F616A"/>
<path d="M55.1954 103.2C54.978 103.115 33.3225 94.691 20.0207 101.579L19.6935 101.748L17.04 88.6869L15.5279 60.6054L25.367 55.9562L28.076 49.888L46.5281 48.7961L50.3199 53.9962L63.2299 58.2272L55.5141 103.326L55.1954 103.2Z" fill="#B80C09"/>
<path d="M55.8735 77.8528L58.1559 59.9196L63.3527 58.3378L63.4404 58.3702C64.4314 58.832 65.2908 59.5349 65.9402 60.4145C66.5896 61.294 67.0082 62.3223 67.1578 63.4054C67.8999 67.1585 73.4887 90.5141 73.5452 90.7496L73.6012 90.9832L60.4696 96.2372L55.8735 77.8528Z" fill="#B80C09"/>
<path d="M86.041 252.992L103.521 249.406L75.5828 172.314L66.021 146.019C66.021 146.019 59.9564 124.936 57.2164 116.777L55.5628 105.83L16.4192 110.162C16.4192 110.162 5.48652 126.218 8.8078 152.388L7.3056 250.75L24.7858 251.647L39.4272 152.443L65.1246 206.826C65.1246 206.826 73.2241 230.033 79.019 235.063L86.041 252.992Z" fill="#2F2E41"/>
<path d="M51.4826 44.5881H20.1421C19.4974 44.5873 18.8794 44.3309 18.4235 43.8751C17.9677 43.4192 17.7112 42.8011 17.7105 42.1565V28.6477C17.7105 23.8468 19.6176 19.2425 23.0124 15.8477C26.4071 12.453 31.0115 10.5458 35.8124 10.5458C40.6133 10.5458 45.2175 12.453 48.6123 15.8477C52.0071 19.2425 53.9142 23.8468 53.9142 28.6477V42.1565C53.9135 42.8012 53.6571 43.4192 53.2012 43.8751C52.7454 44.3309 52.1273 44.5873 51.4826 44.5881V44.5881Z" fill="#2F2E41"/>
<path d="M39.5321 44.2736C46.8618 44.2736 52.8038 38.3317 52.8038 31.0019C52.8038 23.6722 46.8618 17.7303 39.5321 17.7303C32.2024 17.7303 26.2604 23.6722 26.2604 31.0019C26.2604 38.3317 32.2024 44.2736 39.5321 44.2736Z" fill="#9F616A"/>
<path d="M58.1967 29.9985H39.0327L38.8361 27.2471L37.8536 29.9985H34.9027L34.5133 24.5453L32.5659 29.9985H26.8561V29.7283C26.8604 25.9319 28.3704 22.2922 31.0548 19.6078C33.7393 16.9233 37.3789 15.4133 41.1754 15.409H43.8773C47.6737 15.4133 51.3134 16.9233 53.9979 19.6077C56.6823 22.2922 58.1924 25.9319 58.1967 29.7283L58.1967 29.9985Z" fill="#2F2E41"/>
<path d="M38.8759 47.1098C38.7316 47.1096 38.5876 47.0969 38.4456 47.0718L24.4128 44.5959V21.4039H39.8602L39.4777 21.8498C34.1567 28.0554 38.1655 38.1179 41.0286 43.5637C41.2396 43.9625 41.3337 44.4129 41.3 44.8629C41.2664 45.3128 41.1063 45.7442 40.8383 46.1071C40.6138 46.4176 40.3189 46.6703 39.9777 46.8446C39.6366 47.0189 39.2589 47.1098 38.8759 47.1098Z" fill="#2F2E41"/>
<path d="M115.648 89.5058C114.774 89.594 113.894 89.6145 113.016 89.5672C112.866 89.5509 112.716 89.594 112.598 89.6872C112.48 89.7804 112.403 89.9163 112.384 90.0656L110.704 102.662C110.575 103.577 110.201 104.439 109.621 105.158C109.143 105.73 108.787 106.394 108.577 107.109C108.366 107.824 108.305 108.575 108.397 109.315V130.713C108.397 130.713 108.288 133.566 110.48 133.566C113.104 133.896 115.759 133.896 118.382 133.566C118.382 133.566 120.137 133.234 120.137 130.601V109.531C120.271 108.796 120.244 108.041 120.057 107.318C119.87 106.594 119.528 105.92 119.054 105.342C118.494 104.621 118.131 103.766 118.003 102.861L116.259 90.0007C116.239 89.8561 116.165 89.7244 116.051 89.6325C115.938 89.5406 115.794 89.4953 115.648 89.5058V89.5058Z" fill="white"/>
<path d="M114.424 134.174C113.098 134.174 111.773 134.091 110.457 133.927C110.163 133.934 109.871 133.88 109.599 133.769C109.327 133.657 109.08 133.491 108.876 133.28C108.299 132.546 108.002 131.632 108.036 130.699L108.035 109.337C107.942 108.551 108.01 107.755 108.235 106.997C108.46 106.239 108.837 105.534 109.344 104.927C109.881 104.26 110.227 103.46 110.347 102.612L112.026 90.0179C112.058 89.7756 112.184 89.5556 112.376 89.4045C112.568 89.2534 112.812 89.183 113.055 89.2083C113.908 89.2532 114.763 89.2326 115.612 89.1466L115.622 89.1457C115.859 89.1285 116.094 89.2022 116.279 89.3519C116.464 89.5016 116.584 89.716 116.617 89.9516L118.361 102.813C118.481 103.654 118.818 104.449 119.339 105.12C119.841 105.734 120.205 106.448 120.405 107.215C120.605 107.982 120.637 108.783 120.499 109.564V130.601C120.499 133.499 118.47 133.917 118.449 133.921C117.114 134.089 115.77 134.174 114.424 134.174V134.174ZM112.967 89.9263C112.913 89.9237 112.86 89.9412 112.819 89.9754C112.777 90.0095 112.75 90.0579 112.742 90.1111L111.062 102.71C110.924 103.69 110.523 104.614 109.902 105.385C109.455 105.92 109.123 106.541 108.926 107.209C108.729 107.877 108.671 108.579 108.755 109.27L108.758 109.315V130.713C108.731 131.455 108.956 132.184 109.398 132.78C109.538 132.923 109.707 133.035 109.894 133.108C110.08 133.181 110.28 133.214 110.48 133.205L110.525 133.208C113.119 133.533 115.744 133.533 118.337 133.208C118.372 133.199 119.776 132.879 119.776 130.601L119.782 109.467C119.907 108.783 119.882 108.081 119.708 107.408C119.534 106.735 119.215 106.108 118.775 105.571C118.173 104.798 117.784 103.881 117.646 102.912L115.901 90.049C115.893 89.9963 115.866 89.9482 115.825 89.9144C115.784 89.8805 115.732 89.8632 115.678 89.8658C114.787 89.9549 113.891 89.9757 112.996 89.9279L112.967 89.9263Z" fill="#3F3D56"/>
<path d="M115.659 109.698H112.998C110.794 109.698 109.007 111.484 109.007 113.688V123.703C109.007 125.907 110.794 127.694 112.998 127.694H115.659C117.863 127.694 119.65 125.907 119.65 123.703V113.688C119.65 111.484 117.863 109.698 115.659 109.698Z" fill="#B80C09"/>
<path d="M101.339 67.1351C100.465 67.2232 99.5846 67.2437 98.7067 67.1965C98.5571 67.1801 98.4069 67.2232 98.2887 67.3164C98.1705 67.4096 98.0937 67.5455 98.0747 67.6949L96.3954 80.2917C96.2662 81.2061 95.8917 82.0685 95.3119 82.7873C94.8338 83.3593 94.4785 84.0234 94.2679 84.7385C94.0573 85.4535 93.9959 86.2043 94.0876 86.9441V108.342C94.0876 108.342 93.9793 111.195 96.1714 111.195C98.7951 111.525 101.45 111.525 104.073 111.195C104.073 111.195 105.829 110.863 105.829 108.23V87.1608C105.962 86.4257 105.935 85.6703 105.748 84.9469C105.561 84.2235 105.219 83.5494 104.745 82.9714C104.185 82.2501 103.822 81.3948 103.694 80.4904L101.95 67.6299C101.93 67.4853 101.856 67.3536 101.743 67.2617C101.629 67.1698 101.485 67.1245 101.339 67.1351V67.1351Z" fill="white"/>
<path d="M100.115 111.803C98.7887 111.803 97.464 111.721 96.1482 111.556C95.8542 111.563 95.5619 111.509 95.2897 111.398C95.0175 111.286 94.7714 111.12 94.5666 110.909C93.9903 110.175 93.6927 109.261 93.7267 108.328L93.7264 86.9661C93.6333 86.1806 93.7014 85.3844 93.9263 84.6261C94.1512 83.8679 94.5284 83.1634 95.0347 82.5558C95.5715 81.8888 95.9181 81.089 96.0377 80.2413L97.7166 67.6471C97.7494 67.4048 97.8751 67.1849 98.0672 67.0337C98.2594 66.8826 98.5028 66.8122 98.7459 66.8375C99.5987 66.8825 100.454 66.8618 101.303 66.7758L101.313 66.7749C101.55 66.7577 101.785 66.8314 101.97 66.9811C102.155 67.1308 102.275 67.3452 102.308 67.5808L104.052 80.4419C104.172 81.2831 104.509 82.0786 105.03 82.7497C105.532 83.3631 105.896 84.0777 106.096 84.8445C106.296 85.6114 106.328 86.4125 106.19 87.1929V108.23C106.19 111.128 104.161 111.546 104.14 111.55C102.805 111.718 101.461 111.803 100.115 111.803V111.803ZM98.6576 67.5556C98.6039 67.553 98.5511 67.5705 98.5096 67.6046C98.4681 67.6388 98.4407 67.6872 98.4329 67.7404L96.7533 80.3395C96.6152 81.3195 96.2142 82.2437 95.5929 83.0141C95.1464 83.549 94.8142 84.1697 94.617 84.838C94.4197 85.5063 94.3615 86.2079 94.446 86.8996L94.4488 86.944V108.342C94.4216 109.084 94.6472 109.813 95.0886 110.41C95.2291 110.553 95.3981 110.664 95.5847 110.737C95.7713 110.811 95.9712 110.844 96.1714 110.834L96.2165 110.837C98.8102 111.162 101.435 111.162 104.028 110.837C104.063 110.828 105.467 110.508 105.467 108.23L105.473 87.096C105.598 86.4124 105.573 85.7098 105.399 85.0371C105.225 84.3643 104.906 83.7375 104.466 83.2002C103.864 82.4274 103.475 81.5106 103.337 80.541L101.592 67.6782C101.584 67.6255 101.557 67.5775 101.516 67.5436C101.475 67.5097 101.423 67.4924 101.369 67.495C100.478 67.5842 99.5816 67.6049 98.6873 67.5571L98.6576 67.5556Z" fill="#3F3D56"/>
<path d="M101.35 87.3269H98.6887C96.4847 87.3269 94.6979 89.1136 94.6979 91.3176V101.332C94.6979 103.536 96.4847 105.323 98.6887 105.323H101.35C103.554 105.323 105.341 103.536 105.341 101.332V91.3176C105.341 89.1136 103.554 87.3269 101.35 87.3269Z" fill="#B80C09"/>
<path d="M52.9224 115.963H40.5026C39.3497 115.963 38.244 115.505 37.4288 114.69C36.6136 113.874 36.1556 112.769 36.1556 111.616C36.1556 110.463 36.6136 109.357 37.4288 108.542C38.244 107.727 39.3497 107.269 40.5026 107.269H52.9224C54.0753 107.269 55.1809 107.727 55.9962 108.542C56.8114 109.357 57.2693 110.463 57.2693 111.616C57.2693 112.769 56.8114 113.874 55.9962 114.69C55.1809 115.505 54.0753 115.963 52.9224 115.963V115.963Z" fill="#E4E4E4"/>
<path d="M57.2693 113.479H36.1556C35.4991 113.475 34.8707 113.212 34.4077 112.747C33.9447 112.281 33.6848 111.651 33.6848 110.995C33.6848 110.338 33.9447 109.708 34.4077 109.243C34.8707 108.777 35.4991 108.514 36.1556 108.511H57.2693C57.5967 108.509 57.921 108.572 58.2239 108.696C58.5268 108.82 58.8022 109.003 59.0343 109.234C59.2664 109.464 59.4505 109.739 59.5762 110.041C59.7018 110.343 59.7665 110.667 59.7665 110.995C59.7665 111.322 59.7018 111.646 59.5762 111.948C59.4505 112.251 59.2664 112.525 59.0343 112.756C58.8022 112.987 58.5268 113.169 58.2239 113.293C57.921 113.417 57.5967 113.48 57.2693 113.479Z" fill="#CACACA"/>
<path d="M54.7626 124.067H38.3103C36.5112 124.065 34.7864 123.349 33.515 122.076C32.2436 120.803 31.5295 119.077 31.5295 117.278C31.5295 115.479 32.2436 113.753 33.515 112.48C34.7864 111.207 36.5112 110.491 38.3103 110.489H54.7626C56.5632 110.489 58.29 111.204 59.5632 112.477C60.8364 113.751 61.5517 115.478 61.5517 117.278C61.5517 119.079 60.8364 120.805 59.5632 122.079C58.29 123.352 56.5632 124.067 54.7626 124.067V124.067Z" fill="#E4E4E4"/>
<path d="M32.1167 113.813C31.8089 113.806 31.5009 113.823 31.1958 113.864L12.9345 93.1759L15.0588 86.8176L5.88194 82.3576L1.02751 93.2483C0.635333 94.1281 0.53917 95.1114 0.753399 96.0506C0.967628 96.9897 1.4807 97.834 2.21562 98.4567L26.1676 118.752C25.9849 119.924 26.1634 121.124 26.6793 122.192C27.1952 123.26 28.024 124.145 29.0555 124.731C30.087 125.316 31.2723 125.574 32.4538 125.469C33.6353 125.365 34.7569 124.903 35.6695 124.145C36.5821 123.388 37.2424 122.37 37.5627 121.228C37.8829 120.086 37.8478 118.874 37.4621 117.752C37.0765 116.63 36.3584 115.653 35.4035 114.949C34.4487 114.246 33.3022 113.849 32.1167 113.813V113.813Z" fill="#9F616A"/>
<path d="M4.22876 85.4226L11.3677 65.0877C12.17 62.6906 13.1754 61.2343 14.3561 60.7591C14.5886 60.6545 14.8403 60.5992 15.0953 60.5969C15.3503 60.5945 15.6031 60.645 15.8376 60.7453L19.0388 64.7896L22.0098 77.2708L14.3922 95.1893L4.22876 85.4226Z" fill="#B80C09"/>
</svg>
